<?xml version="1.0" encoding="UTF-8"?>
<!-- Generated by Pixelmator Pro 3.7 -->
<svg width="532" height="658" viewBox="0 0 532 658" xmlns="http://www.w3.org/2000/svg">
    <path id="Shape-copy-2" fill="#fff4f8" fill-rule="evenodd" stroke="none" d="M 273.5 657.520142 C 246 657.681335 219.674988 657.427979 215 656.957153 C 210.325012 656.486328 202.225006 655.381348 197 654.501587 C 191.774994 653.621826 182.811157 651.757324 177.080353 650.358276 C 171.349548 648.959229 162.275055 646.287964 156.914825 644.422241 C 151.554565 642.556396 143.013885 639.227722 137.935486 637.025146 C 132.857086 634.82251 124.831573 630.932373 120.101013 628.380432 C 115.370453 625.828491 107.050659 620.812073 101.612579 617.232788 C 96.174469 613.653564 87.399475 607.242615 82.112579 602.986328 C 76.825653 598.72998 67.321655 589.904297 60.992584 583.373779 C 54.663513 576.843201 46.506744 567.524414 42.866455 562.665405 C 39.226166 557.806335 33.426361 549.09436 29.977997 543.305481 C 26.529633 537.516602 21.800629 528.442139 19.469055 523.140137 C 17.137482 517.838013 13.798431 509.225006 12.048889 504 C 10.299347 498.774994 8.030396 490.899994 7.006775 486.5 C 5.983154 482.100006 4.437881 473.717255 3.57283 467.871674 C 2.203995 458.621857 2.00238 440.333832 2.018326 326.871643 C 2.033798 216.722168 2.268082 194.87146 3.528717 186.000793 C 4.349365 180.226257 6.111053 171.001221 7.443588 165.500793 C 8.776123 160.000366 11.50946 150.775024 13.51767 145 C 15.525879 139.224976 19.811249 129.099976 23.04071 122.5 C 26.270172 115.900024 31.547913 106.450012 34.769012 101.5 C 37.990143 96.549988 44.262115 87.986328 48.706787 82.469604 C 53.151428 76.952881 61.197449 68.223694 66.586792 63.071472 C 71.976135 57.919189 80.857758 50.375427 86.32373 46.307495 C 91.789734 42.239624 100.552673 36.386047 105.796967 33.299622 C 111.04126 30.213196 120.094818 25.562439 125.916016 22.9646 C 131.737213 20.36676 142.125 16.424561 149 14.204224 C 155.875 11.983887 167.127533 9.014709 174.005585 7.606079 C 180.883667 6.197449 192.133667 4.472351 199.005585 3.772461 C 207.537842 2.903503 229.57547 2.5 268.5 2.5 C 306.949158 2.5 329.405457 2.905884 337.5 3.747131 C 344.099976 4.433105 355.125 6.138 362 7.535889 C 368.875 8.933777 380.575012 12.120056 388 14.616577 C 395.424988 17.113098 407.349976 22.014526 414.5 25.508667 C 421.650024 29.002869 432.224976 34.996704 438 38.82843 C 443.775024 42.660156 452.775024 49.378418 458 53.757996 C 463.224976 58.137512 470.456848 64.856567 474.070801 68.689148 C 477.684692 72.521729 483.166138 78.821655 486.25177 82.688904 C 489.337402 86.556152 494.820923 94.236206 498.437317 99.755737 C 502.053711 105.275208 507.693542 115.350647 510.970215 122.145569 C 514.246887 128.940491 518.762207 140.004089 521.004211 146.731323 C 523.246216 153.458557 525.941528 162.908569 526.993774 167.731323 C 528.046082 172.554077 529.602966 181.810547 530.453491 188.301208 C 531.777527 198.404907 532 218.060242 532 324.945251 C 532 405.568542 531.625122 453.456177 530.941711 460.144043 C 530.359619 465.839813 528.797974 475.634247 527.471375 481.909454 C 526.144775 488.184631 523.243896 498.759644 521.024963 505.409454 C 518.806091 512.059204 514.300659 523.043762 511.013 529.819458 C 507.725342 536.595215 502.49939 546.045166 499.399719 550.819458 C 496.30011 555.59375 490.50177 563.549988 486.514587 568.5 C 482.527466 573.450012 473.91803 582.69165 467.382568 589.036987 C 460.847168 595.382324 450.982056 603.959106 445.460144 608.096436 C 439.938171 612.233826 431.163208 618.258484 425.960144 621.484619 C 420.75708 624.710754 410.650024 630.16217 403.5 633.598938 C 396.349976 637.035706 385.109558 641.700195 378.52124 643.964355 C 371.932861 646.228577 362.211731 649.178894 356.91864 650.52063 C 351.625549 651.862366 341.940979 653.920227 335.3974 655.093628 C 324.478455 657.051697 319.388 657.251221 273.5 657.520142 Z M 482.749329 534.461792 C 472.65448 528.490601 466.229858 523.418945 461.959595 519.339172 C 457.68927 515.259338 451.95752 508.676514 449.222351 504.710663 C 446.487183 500.744812 441.920227 492.849823 439.073547 487.16626 C 436.226868 481.482727 431.257629 468.882721 428.030823 459.16626 C 424.804016 449.449829 419.911011 432.274994 417.157471 421 C 414.403992 409.725006 409.836304 389.700012 407.007019 376.5 C 404.177734 363.299988 399.820313 343.5 397.323853 332.5 C 394.827393 321.5 391.223389 307.099976 389.314941 300.5 C 387.406555 293.900024 383.8302 283.325012 381.367554 277 C 378.904907 270.674988 374.840698 261.674988 372.335938 257 C 369.831238 252.325012 365.380066 244.900024 362.444519 240.5 C 359.508972 236.099976 355.021667 229.874512 352.472717 226.665649 C 347.838318 220.831299 347.838318 220.831299 347.955933 202.153931 C 348.02063 191.881409 347.595032 179.206909 347.010254 173.988342 C 346.425415 168.769714 344.815735 160.229248 343.433167 155.00946 C 342.050598 149.789673 339.172119 141.559448 337.036621 136.720093 C 334.901062 131.880737 330.230347 123.551453 326.657166 118.210632 C 323.083984 112.869812 316.947632 104.900024 313.020752 100.5 C 309.093933 96.099976 303.125183 90.145142 299.756958 87.266907 C 296.388672 84.388733 293.572937 82.138733 293.499756 82.266907 C 293.426514 82.395142 293.71106 88.799988 294.13208 96.5 C 294.553101 104.200012 295.370605 122.167297 295.948792 136.427368 C 296.526978 150.687439 297 167.282959 297 173.306335 L 297 184.257996 L 288.25 183.585083 C 283.34845 183.20813 275.120361 183.40564 269.542175 184.03418 C 264.065399 184.651245 256.415405 186.188232 252.542175 187.449585 C 248.668976 188.710938 235.825012 195.128784 224 201.711487 C 212.174988 208.294189 193.950012 218.642639 183.5 224.708069 C 173.049988 230.773499 156.625 240.437683 147 246.184082 C 137.375 251.930481 120.137299 262.631226 108.694 269.963623 C 97.250671 277.296021 85.590546 285.360779 82.782562 287.885376 C 79.974579 290.410034 76.795898 294.467834 75.718811 296.902771 C 74.271362 300.174988 73.908691 302.581177 74.328583 306.126465 C 74.641022 308.764587 75.393372 312.627869 76.000488 314.711487 C 76.607574 316.795166 77.193329 324.349976 77.302155 331.5 C 77.484619 343.48999 77.716766 344.941406 80.2901 350.18161 C 81.824646 353.306488 84.726776 357.308929 86.739288 359.075958 C 88.751801 360.842957 92.446259 363.200043 94.949188 364.313934 C 97.763336 365.566315 102.552917 366.520874 107.5 366.815247 C 111.962463 367.08078 118.153168 366.74823 121.5 366.063171 C 124.799988 365.387695 132.732758 362.593445 139.128387 359.853729 C 150.756775 354.872437 150.756775 354.872437 166.758789 358.446136 C 175.559906 360.411652 189.452118 363.182068 197.630402 364.60257 C 207.692566 366.350311 217.996216 367.367065 229.5 367.747437 C 240.397217 368.107727 249.49118 367.880402 254.832306 367.114197 C 259.415039 366.456787 266.750671 364.610138 271.133728 363.010559 C 275.516724 361.41095 281.964294 358.060272 285.461609 355.564636 C 289.120728 352.953552 293.973633 348.155548 296.892029 344.26355 C 299.681458 340.543579 302.984314 335.145172 304.231812 332.26709 C 305.479309 329.388977 306.776062 327.026428 307.113464 327.01709 C 307.450928 327.00769 307.300354 329.347229 306.778931 332.216064 C 306.257507 335.08493 304.759888 340.822418 303.450867 344.966095 C 302.141907 349.109741 299.453979 355.200012 297.477783 358.5 C 295.501587 361.799988 291.358704 367.065826 288.271301 370.201843 C 285.18396 373.33783 280.06366 377.286407 276.892944 378.976379 C 273.722168 380.666382 267.611633 382.976807 263.313965 384.110657 C 258.139526 385.47583 250.855621 386.359253 241.750885 386.725952 C 228.00177 387.279663 228.00177 387.279663 227.031738 390.889832 C 226.49823 392.875427 224.508423 401.024994 222.609955 409 C 220.711487 416.975006 217.588593 430.475006 215.670197 439 C 213.75177 447.524994 210.797821 461.475006 209.105865 470 C 207.41391 478.524994 204.695831 493.375 203.065704 503 C 201.435577 512.625 199.173981 528.599976 198.039948 538.5 C 196.905884 548.400024 195.689697 564.630371 195.33725 574.567566 C 194.946136 585.595398 195.147552 597.868896 195.854156 606.067566 C 196.490845 613.455383 197.50354 622.291565 198.104553 625.703491 C 199.197327 631.907043 199.197327 631.907043 203.848663 632.612793 C 206.406891 633.000916 212.325012 633.630554 217 634.011963 C 221.674988 634.393311 243.5 634.767029 265.5 634.842407 C 287.5 634.917725 310.900024 634.513977 317.5 633.94519 C 324.099976 633.376465 335.026428 631.800659 341.780945 630.443481 C 348.535522 629.086304 360.017822 626.015991 367.297241 623.620605 C 374.57666 621.22522 385.319397 617.007324 391.170044 614.24762 C 397.020691 611.487854 406.127136 606.687744 411.406555 603.580566 C 416.686035 600.473511 425.391785 594.621704 430.752808 590.57666 C 436.11377 586.531555 444.518127 579.459473 449.429199 574.860962 C 454.34021 570.262451 461.641174 562.559326 465.653503 557.74292 C 469.665833 552.926514 475.153809 545.717896 477.848999 541.723755 L 482.749329 534.461792 Z M 178.375 626.944824 C 179.939972 626.990845 180.148743 626.493652 179.637573 623.937805 C 179.30072 622.253601 178.503662 614.491089 177.866333 606.687805 C 177.165497 598.107361 176.957001 585.188354 177.338776 574 C 177.685944 563.825012 178.900909 547.400024 180.038696 537.5 C 181.176483 527.599976 183.656738 510.274994 185.550385 499 C 187.444031 487.725006 190.752411 469.950012 192.902313 459.5 C 195.052246 449.049988 199.605377 428.214142 203.020386 413.19809 C 206.435394 398.182007 209.038055 385.704712 208.804077 385.470764 C 208.570099 385.236786 202.105988 383.893616 194.439331 382.485931 C 186.772705 381.078247 173.885895 378.356384 165.801971 376.437378 C 151.103943 372.948242 151.103943 372.948242 144.13739 376.498596 C 140.305786 378.451294 134.544922 380.993286 131.335419 382.147461 C 127.183624 383.640533 122.146729 384.389008 113.877594 384.741699 C 103.743805 385.17392 101.261536 384.942444 94.497467 382.934418 C 90.230743 381.667755 84.207092 378.994446 81.111572 376.993713 C 78.016052 374.992981 73.509918 371.138428 71.097961 368.428009 C 68.685974 365.717621 65.427643 360.698303 63.857208 357.274017 C 62.286774 353.849731 60.544617 347.999725 59.985748 344.274017 C 59.426849 340.548309 58.693756 332.775024 58.356598 327 C 58.01944 321.224976 57.688782 311.524841 57.621796 305.444092 C 57.502045 294.574036 57.56308 294.260681 61.252563 286.799438 C 63.943298 281.357971 66.714081 277.628479 71.044678 273.619141 C 74.366455 270.543762 82.802795 264.241333 89.792114 259.613708 C 96.781464 254.986084 109.25 247.174438 117.5 242.254517 C 125.75 237.334595 141.049988 228.343384 151.5 222.274048 C 161.950012 216.204773 178.445282 206.737183 188.156219 201.235107 C 197.867126 195.733032 211.85849 187.972351 219.248138 183.989197 C 226.637756 180.006042 233.703796 175.977722 234.950439 175.037415 C 237.21701 173.327698 237.21701 173.327698 233.154602 160.913879 C 230.920258 154.086243 226.999878 141.299988 224.442657 132.5 C 221.885437 123.700012 217.559448 109.111145 214.829346 100.080261 C 212.099274 91.049377 209.611115 81.511963 209.30011 78.886047 C 208.784576 74.533203 209.004517 73.841675 211.790405 71.055786 C 213.760468 69.085693 215.850525 68.001343 217.673065 68.003723 C 219.227875 68.005798 221.918152 68.872192 223.651428 69.929077 C 225.384705 70.985962 229.092865 74.602417 231.891754 77.965637 C 234.690674 81.328918 240.358795 89.196411 244.48761 95.448975 C 248.616394 101.701599 255.799377 113.687622 260.449799 122.084717 C 265.100189 130.48175 271.063904 142.560364 273.702515 148.926025 C 278.037231 159.383545 278.528687 160.159424 278.797302 156.969421 C 278.960815 155.027588 278.624634 143.552551 278.050232 131.469421 C 277.475891 119.38623 276.551392 102.75 275.99585 94.5 C 275.440308 86.25 274.707764 76.113892 274.36792 71.975281 C 273.780151 64.817322 273.882324 64.293335 276.463928 61.225281 C 278.748352 58.510315 279.85968 58 283.487366 58 C 286.362976 58 289.743896 59.022766 293.648438 61.073853 C 296.866821 62.764465 301.897644 65.955566 304.828125 68.165222 C 307.758606 70.374878 313.302185 75.150513 317.147278 78.77771 C 320.99231 82.404968 326.972107 88.776367 330.435608 92.93634 C 333.89917 97.096375 339.081787 104.099976 341.952637 108.5 C 344.823425 112.900024 349.103394 120.549988 351.463684 125.5 C 353.823975 130.450012 357.159485 138.890564 358.875916 144.256836 C 360.592346 149.623169 362.693542 157.723145 363.545227 162.256836 C 364.470154 167.180664 365.330872 179.433838 365.682739 192.685913 C 366.271851 214.871826 366.271851 214.871826 371.723328 222.185913 C 374.721619 226.208679 379.593445 233.549988 382.549622 238.5 C 385.505798 243.450012 390.148071 252.224976 392.865723 258 C 395.583435 263.775024 399.859558 274.575012 402.368225 282 C 404.876953 289.424988 408.710083 302.700012 410.886414 311.5 C 413.062683 320.299988 417.162903 338.299988 419.998047 351.5 C 422.833191 364.700012 426.942566 383.375 429.129944 393 C 431.317383 402.625 434.927612 417.700012 437.15271 426.5 C 439.377808 435.299988 443.207397 448.575012 445.662903 456 C 448.118408 463.424988 452.342163 474 455.049011 479.5 C 457.755859 485 462.301575 492.588928 465.150513 496.364319 C 467.999512 500.139679 473.140625 505.54657 476.575256 508.379608 C 480.009888 511.212616 484.668579 514.569519 486.927917 515.839355 C 491.035767 518.148071 491.035767 518.148071 493.946411 511.824036 C 495.547241 508.345825 498.19928 501.639618 499.839905 496.921387 C 501.480469 492.203125 503.967285 483.203125 505.366211 476.921387 C 506.765076 470.639618 508.379944 460.839813 508.954773 455.144043 C 509.617432 448.578339 509.999695 401.547729 509.999146 326.644043 C 509.998657 252.490051 509.610657 204.404236 508.957214 197.5 C 508.384644 191.450012 506.997253 182.061157 505.874207 176.635864 C 504.751099 171.210632 502.249634 161.985657 500.315369 156.135864 C 498.381042 150.286133 494.616821 140.869812 491.950317 135.210693 C 489.283752 129.551636 484.998901 121.457214 482.428345 117.223145 C 479.857788 112.989075 475.22229 106.157898 472.127319 102.042725 C 469.032288 97.927551 462.483276 90.357239 457.573975 85.219849 C 452.664673 80.082458 445.239685 73.13031 441.073975 69.770569 C 436.908325 66.410828 429.450012 60.992004 424.5 57.728638 C 419.549988 54.465332 410.099976 49.151672 403.5 45.920471 C 396.900024 42.689331 386.099976 38.259644 379.5 36.076843 C 372.900024 33.893982 363 31.205078 357.5 30.101501 C 352 28.997864 343.686829 27.623535 339.026245 27.047485 C 333.935486 26.418213 305.379578 26 267.5 26 C 229.452576 26 201.087036 26.416931 195.973755 27.051331 C 191.313202 27.629578 183 29.026855 177.5 30.156372 C 172 31.285889 161.955658 34.018738 155.179199 36.22937 C 148.402771 38.440002 136.702789 43.305298 129.179199 47.04126 C 121.65564 50.777161 111.274536 56.762024 106.110077 60.340881 C 100.945618 63.9198 92.727264 70.326538 87.847107 74.578125 C 82.966949 78.829773 75.717438 86.098694 71.737061 90.731384 C 67.756683 95.364014 61.683289 103.05719 58.240631 107.827209 C 54.798004 112.597229 48.700439 123.025024 44.690521 131 C 40.680603 138.974976 35.911285 150 34.092041 155.5 C 32.272797 161 29.71109 170.224976 28.399323 176 C 27.087585 181.775024 25.512817 192.349976 24.899872 199.5 C 24.125549 208.532166 23.915833 250.346863 24.212769 336.5 C 24.59845 448.398712 24.806946 461.329529 26.349213 469 C 27.289215 473.674988 29.210236 481.774994 30.618164 487 C 32.026093 492.225006 35.199127 501.447021 37.669342 507.493378 C 40.139526 513.539795 44.629211 522.885132 47.646423 528.260864 C 50.663605 533.636597 56.533539 542.605225 60.690735 548.191162 C 64.847931 553.7771 72.355682 562.598145 77.374634 567.793579 C 82.393585 572.988892 91 580.866821 96.5 585.300049 C 102 589.733215 110.100006 595.704468 114.5 598.569458 C 118.899994 601.434448 126.850525 606.098755 132.167816 608.934509 C 137.485107 611.770264 145.810089 615.694641 150.667816 617.655334 C 155.525513 619.616028 163.325012 622.49585 168 624.054932 C 172.674988 625.614075 177.34375 626.91449 178.375 626.944824 Z"/>
</svg>
